<?xml version="1.0" encoding="UTF-8" standalone="no"?><!DOCTYPE svg PUBLIC "-//W3C//DTD SVG 1.1//EN" "http://www.w3.org/Graphics/SVG/1.1/DTD/svg11.dtd"><svg width="100%" height="100%" viewBox="0 0 720 540" version="1.1" xmlns="http://www.w3.org/2000/svg" xmlns:xlink="http://www.w3.org/1999/xlink" xml:space="preserve" style="fill-rule:evenodd;clip-rule:evenodd;stroke-miterlimit:8;"><rect x="0" y="0" width="720" height="540" style="fill:#fff;fill-rule:nonzero;"/><rect x="25.5" y="212.288" width="47.269" height="26.418" style="fill:#7030a0;fill-rule:nonzero;"/><rect x="25.5" y="212.288" width="47.269" height="26.418" style="fill:none;stroke:#000;stroke-width:1.5px;"/><rect x="194.115" y="212.288" width="47.269" height="26.418" style="fill:#7030a0;fill-rule:nonzero;"/><rect x="194.115" y="212.288" width="47.269" height="26.418" style="fill:none;stroke:#000;stroke-width:1.5px;"/><rect x="362.731" y="212.288" width="47.269" height="26.418" style="fill:#7030a0;fill-rule:nonzero;"/><rect x="362.731" y="212.288" width="47.269" height="26.418" style="fill:none;stroke:#000;stroke-width:1.5px;"/><rect x="38.596" y="68.918" width="124.039" height="48.229" style="fill:#bfbfbf;fill-rule:nonzero;"/><rect x="38.596" y="68.918" width="124.039" height="48.229" style="fill:none;stroke:#000;stroke-width:1.5px;"/><rect x="207.212" y="68.918" width="124.039" height="48.229" style="fill:#7f7f7f;fill-rule:nonzero;"/><rect x="207.212" y="68.918" width="124.039" height="48.229" style="fill:none;stroke:#000;stroke-width:1.5px;"/><rect x="194.115" y="158.639" width="150.231" height="53.649" style="fill:#1f4e79;fill-rule:nonzero;"/><rect x="194.115" y="158.639" width="150.231" height="53.649" style="fill:none;stroke:#000;stroke-width:1.5px;"/><rect x="25.5" y="158.639" width="150.231" height="53.649" style="fill:#70ad47;fill-rule:nonzero;"/><rect x="25.5" y="158.639" width="150.231" height="53.649" style="fill:none;stroke:#000;stroke-width:1.5px;"/><rect x="207.211" y="318.698" width="124.039" height="48.229" style="fill:#525252;fill-rule:nonzero;"/><rect x="207.211" y="318.698" width="124.039" height="48.229" style="fill:none;stroke:#000;stroke-width:1.5px;"/><rect x="391.115" y="318.698" width="124.039" height="48.229" style="fill:#525252;fill-rule:nonzero;"/><rect x="391.115" y="318.698" width="124.039" height="48.229" style="fill:none;stroke:#000;stroke-width:1.5px;"/><text x="35.135px" y="232.362px" style="font-family:'ArialMT', 'Arial', sans-serif;font-size:18px;fill:#fff;">IPF</text><text x="203.75px" y="232.362px" style="font-family:'ArialMT', 'Arial', sans-serif;font-size:18px;fill:#fff;">IPF</text><text x="372.365px" y="232.362px" style="font-family:'ArialMT', 'Arial', sans-serif;font-size:18px;fill:#fff;">IPF</text><g><text x="47.11px" y="89.097px" style="font-family:'ArialMT', 'Arial', sans-serif;font-size:18px;">DDA<tspan x="84.121px 89.122px " y="89.097px 89.097px "> /</tspan> DIA-ps</text><text x="70.45px" y="110.434px" style="font-family:'ArialMT', 'Arial', sans-serif;font-size:18px;">mzXML</text></g><text x="222.058px" y="99.897px" style="font-family:'ArialMT', 'Arial', sans-serif;font-size:18px;fill:#fff;">DIA<tspan x="251.071px 256.072px " y="99.897px 99.897px "> m</tspan>zXML</text><text x="215.728px" y="192.329px" style="font-family:'ArialMT', 'Arial', sans-serif;font-size:18px;fill:#fff;">OpenSW<tspan x="288.089px 298.758px 309.754px " y="192.329px 192.329px 192.329px ">ATH</tspan></text><g><text x="37.615px" y="181.529px" style="font-family:'ArialMT', 'Arial', sans-serif;font-size:18px;fill:#fff;">Spectral Library</text><text x="56.115px" y="202.865px" style="font-family:'ArialMT', 'Arial', sans-serif;font-size:18px;fill:#fff;">Generation</text></g><g><text x="215.731px" y="339.678px" style="font-family:'ArialMT', 'Arial', sans-serif;font-size:14px;fill:#fff;">Chro</text><text x="246.075px" y="339.678px" style="font-family:'ArialMT', 'Arial', sans-serif;font-size:14px;fill:#fff;">m</text><text x="257.588px" y="339.678px" style="font-family:'ArialMT', 'Arial', sans-serif;font-size:14px;fill:#fff;">ato</text><text x="277.049px" y="339.678px" style="font-family:'ArialMT', 'Arial', sans-serif;font-size:14px;fill:#fff;">g</text><text x="284.736px" y="339.678px" style="font-family:'ArialMT', 'Arial', sans-serif;font-size:14px;fill:#fff;">ra</text><text x="297.184px" y="339.678px" style="font-family:'ArialMT', 'Arial', sans-serif;font-size:14px;fill:#fff;">p</text><text x="304.87px" y="339.678px" style="font-family:'ArialMT', 'Arial', sans-serif;font-size:14px;fill:#fff;">hic</text><text x="250.231px" y="356.35px" style="font-family:'ArialMT', 'Arial', sans-serif;font-size:14px;fill:#fff;">mzML</text></g><text x="417.135px" y="349.678px" style="font-family:'ArialMT', 'Arial', sans-serif;font-size:18px;fill:#fff;">Statistics</text><g><text x="107.723px" y="284.538px" style="font-family:'Arial-BoldMT', 'Arial', sans-serif;font-weight:700;font-size:18px;">T<tspan x="117.725px 124.73px " y="284.538px 284.538px ">ra</tspan>M</text><text x="149.735px" y="284.538px" style="font-family:'Arial-BoldMT', 'Arial', sans-serif;font-weight:700;font-size:18px;">L</text><text x="116.728px" y="305.875px" style="font-family:'Arial-BoldMT', 'Arial', sans-serif;font-weight:700;font-size:18px;">TSV</text></g><text x="280.836px" y="284.641px" style="font-family:'Arial-BoldMT', 'Arial', sans-serif;font-weight:700;font-size:18px;">OSW TSV</text><path d="M99.865,260.115l0,-47.827l1.5,0l0,46.327l82.808,0l0,-73.901l3.942,0l0,-2.25l6,3l-6,3l0,-2.25l-2.442,0l0,73.901l-85.808,0Z" style="fill-rule:nonzero;"/><path d="M268.481,260.807l0,-48.519l1.5,0l0,47.019l82.808,0l0,-74.593l3.942,0l0,-2.25l6,3l-6,3l0,-2.25l-2.442,0l0,74.593l-85.808,0Z" style="fill-rule:nonzero;"/><path d="M99.866,117.147l-0.001,35.492l-2.25,0l3,6l3,-6l-2.25,0l0.001,-35.492l-1.5,0Z" style="fill-rule:nonzero;"/><path d="M268.481,117.147l0,35.492l-2.25,0l3,6l3,-6l-2.25,0l0,-35.492l-1.5,0Z" style="fill-rule:nonzero;"/><path d="M269.981,212.288l-1.5,0l0,100.41l-2.25,0l3,6l3,-6l-2.25,0l0,-100.41Z" style="fill-rule:nonzero;"/><path d="M452.385,212.288l1.5,0l0,100.41l2.25,0l-3,6l-3,-6l2.25,0l0,-100.41Z" style="fill-rule:nonzero;"/><rect x="362.731" y="158.639" width="180.808" height="53.649" style="fill:#ed7d31;fill-rule:nonzero;"/><rect x="362.731" y="158.639" width="180.808" height="53.649" style="fill:none;stroke:#000;stroke-width:1.5px;"/><rect x="561.923" y="158.639" width="132.577" height="53.649" style="fill:#ffd966;fill-rule:nonzero;"/><rect x="561.923" y="158.639" width="132.577" height="53.649" style="fill:none;stroke:#000;stroke-width:1.5px;"/><rect x="566.192" y="318.698" width="124.039" height="48.229" style="fill:#525252;fill-rule:nonzero;"/><rect x="566.192" y="318.698" width="124.039" height="48.229" style="fill:none;stroke:#000;stroke-width:1.5px;"/><text x="411.135px" y="192.329px" style="font-family:'ArialMT', 'Arial', sans-serif;font-size:18px;">PyProphet</text><text x="607.212px" y="192.329px" style="font-family:'ArialMT', 'Arial', sans-serif;font-size:18px;">TRIC</text><g><text x="580.212px" y="338.878px" style="font-family:'ArialMT', 'Arial', sans-serif;font-size:18px;fill:#fff;">Quantitative</text><text x="603.712px" y="360.215px" style="font-family:'ArialMT', 'Arial', sans-serif;font-size:18px;fill:#fff;">Matrix</text></g><text x="465.717px" y="284.894px" style="font-family:'Arial-BoldMT', 'Arial', sans-serif;font-weight:700;font-size:18px;">PYP<tspan x="501.41px 506.411px " y="284.894px 284.894px "> T</tspan>SV</text><path d="M452.385,231.038l0,-18.75l1.5,0l0,17.25l98.096,0l0,-44.824l3.942,0l0,-2.25l6,3l-6,3l0,-2.25l-2.442,0l0,44.824l-101.096,0Z" style="fill-rule:nonzero;"/><path d="M628.962,212.288l-1.5,0l0,100.41l-2.25,0l3,6l3,-6l-2.25,0l0,-100.41Z" style="fill-rule:nonzero;"/><rect x="194.115" y="427.38" width="150.231" height="53.649" style="fill:#c00000;fill-rule:nonzero;"/><rect x="194.115" y="427.38" width="150.231" height="53.649" style="fill:none;stroke:#000;stroke-width:1.5px;"/><g><text x="242.896px" y="461.07px" style="font-family:'Arial-BoldMT', 'Arial', sans-serif;font-weight:700;font-size:18px;fill:#fff;">T<tspan x="252.555px 265.554px " y="461.07px 461.07px ">AP</tspan>I</text><text x="282.561px" y="461.07px" style="font-family:'Arial-BoldMT', 'Arial', sans-serif;font-weight:700;font-size:18px;fill:#fff;">R</text></g><g><clipPath id="_clip1"><rect x="370.653" y="65.065" width="331.507" height="55.934"/></clipPath><g clip-path="url(#_clip1)"><rect x="308.933" y="43.531" width="455.999" height="91.199" style="fill:#fff;fill-rule:nonzero;"/><rect x="308.933" y="43.531" width="455.999" height="91.2" style="fill:#fff;fill-rule:nonzero;"/><g><path d="M378.075,91.407c0,-5.775 1.521,-9.99 4.564,-12.647c3.043,-2.657 7.5,-3.986 13.371,-3.986c5.871,0 10.324,1.329 13.359,3.986c3.036,2.657 4.554,6.872 4.554,12.647c0,5.774 -1.518,9.993 -4.554,12.658c-3.035,2.664 -7.488,3.996 -13.359,3.996c-5.871,0 -10.328,-1.332 -13.371,-3.996c-3.043,-2.665 -4.564,-6.884 -4.564,-12.658Zm8.394,0.011c0,3.525 0.753,6.175 2.26,7.949c1.507,1.773 3.934,2.66 7.281,2.66c3.347,0 5.77,-0.887 7.27,-2.66c1.499,-1.774 2.248,-4.424 2.248,-7.949c0,-3.526 -0.749,-6.179 -2.248,-7.96c-1.5,-1.781 -3.923,-2.672 -7.27,-2.672c-3.347,0 -5.774,0.891 -7.281,2.672c-1.507,1.781 -2.26,4.434 -2.26,7.96Z" style="fill-rule:nonzero;"/><path d="M418.019,113.516l0,-29.167c0,-0.401 0.13,-0.732 0.39,-0.991c0.26,-0.26 0.583,-0.39 0.969,-0.39l4.297,0c0.401,0 0.727,0.13 0.98,0.39c0.252,0.259 0.378,0.59 0.378,0.991l0,0.667c2.345,-1.677 4.943,-2.508 7.793,-2.493c3.34,0 6.053,1.094 8.138,3.284c2.086,2.189 3.128,5.303 3.128,9.34c0,4.097 -1.076,7.233 -3.228,9.407c-2.152,2.175 -5.054,3.262 -8.706,3.262c-1.885,0 -4.03,-0.378 -6.435,-1.135l0,6.835c0,0.401 -0.13,0.731 -0.389,0.991c-0.26,0.26 -0.583,0.39 -0.969,0.39l-4.987,0c-0.401,0 -0.728,-0.13 -0.98,-0.39c-0.252,-0.26 -0.379,-0.59 -0.379,-0.991Zm7.704,-11.979c1.915,0.609 3.526,0.913 4.832,0.913c2.034,0 3.477,-0.579 4.331,-1.736c0.853,-1.158 1.28,-3.014 1.28,-5.567c0,-2.523 -0.405,-4.36 -1.214,-5.51c-0.809,-1.151 -2.119,-1.726 -3.929,-1.726c-1.396,0 -3.162,0.668 -5.3,2.004l0,11.622Z" style="fill-rule:nonzero;"/><path d="M446.809,95.203c0,-4.075 1.15,-7.207 3.451,-9.396c2.301,-2.19 5.485,-3.284 9.552,-3.284c4.097,0 7.288,1.065 9.574,3.195c2.286,2.13 3.429,5.184 3.429,9.162l0,1.269c0,0.401 -0.13,0.731 -0.39,0.991c-0.259,0.26 -0.59,0.39 -0.99,0.39l-16.766,0c0.148,1.825 0.671,3.154 1.569,3.985c0.898,0.831 2.275,1.247 4.131,1.247c2.093,0 3.547,-0.497 4.364,-1.492c0.638,-0.786 1.491,-1.187 2.56,-1.202l3.318,0c0.401,0 0.731,0.13 0.991,0.39c0.259,0.259 0.389,0.59 0.389,0.99c0,4.261 -4.06,6.383 -12.179,6.368c-4.097,0 -7.288,-1.083 -9.574,-3.25c-2.286,-2.168 -3.429,-5.288 -3.429,-9.363Zm7.815,-2.371l10.354,0c-0.149,-3.503 -1.867,-5.255 -5.155,-5.255c-3.288,0 -5.021,1.752 -5.199,5.255Z" style="fill-rule:nonzero;"/><path d="M476.912,106.013l0,-21.664c0,-0.401 0.13,-0.732 0.39,-0.991c0.259,-0.26 0.582,-0.39 0.968,-0.39l4.988,0c0.4,0 0.727,0.13 0.979,0.39c0.253,0.259 0.379,0.59 0.379,0.991l0,1.402c2.553,-2.152 5.151,-3.228 7.793,-3.228c3.132,0 5.603,0.879 7.414,2.638c1.811,1.759 2.717,4.45 2.717,8.071l0,12.781c0,0.401 -0.13,0.727 -0.39,0.98c-0.26,0.252 -0.59,0.378 -0.991,0.378l-4.965,0c-0.401,0 -0.727,-0.13 -0.98,-0.39c-0.252,-0.259 -0.378,-0.582 -0.378,-0.968l0,-12.781c0,-3.562 -1.418,-5.336 -4.253,-5.321c-1.855,0 -3.845,1.061 -5.967,3.184l0,14.918c0,0.401 -0.13,0.727 -0.39,0.98c-0.26,0.252 -0.582,0.378 -0.968,0.378l-4.988,0c-0.401,0 -0.727,-0.126 -0.98,-0.378c-0.252,-0.253 -0.378,-0.579 -0.378,-0.98Z" style="fill-rule:nonzero;"/><path d="M506.614,99.2c0,-0.876 0.26,-1.503 0.78,-1.882c0.519,-0.378 1.024,-0.568 1.514,-0.568l2.649,0c1.336,0 2.338,0.698 3.006,2.093c0.727,1.514 2.308,2.271 4.743,2.271l7.793,0.156c2.612,0 3.918,-0.853 3.918,-2.56c0,-0.698 -0.441,-1.299 -1.325,-1.804c-0.883,-0.504 -2.037,-0.924 -3.462,-1.258c-1.425,-0.334 -2.998,-0.668 -4.72,-1.002c-1.722,-0.334 -3.433,-0.753 -5.132,-1.258c-1.7,-0.504 -3.262,-1.098 -4.687,-1.781c-1.425,-0.683 -2.579,-1.622 -3.463,-2.817c-0.883,-1.194 -1.324,-2.601 -1.324,-4.219c0,-2.983 1.061,-5.28 3.184,-6.891c2.122,-1.611 5.774,-2.416 10.954,-2.416l5.656,0.134c3.043,0 5.785,0.783 8.227,2.349c2.442,1.566 3.663,3.521 3.663,5.867c0,0.876 -0.26,1.506 -0.78,1.892c-0.519,0.386 -1.016,0.579 -1.491,0.579l-2.65,0c-1.336,0 -2.338,-0.705 -3.006,-2.115c-0.727,-1.514 -2.308,-2.271 -4.743,-2.271l-6.701,-0.134c-2.613,0 -3.919,0.854 -3.919,2.561c0,0.935 0.827,1.699 2.482,2.293c1.655,0.594 3.659,1.117 6.012,1.57c2.353,0.453 4.717,0.998 7.092,1.636c2.375,0.639 4.39,1.689 6.045,3.151c1.655,1.462 2.482,3.284 2.482,5.466c0,2.984 -1.065,5.281 -3.195,6.891c-2.13,1.611 -5.778,2.416 -10.943,2.416l-6.747,-0.133c-3.043,0 -5.789,-0.783 -8.238,-2.349c-2.449,-1.566 -3.674,-3.522 -3.674,-5.867Z" style="fill-rule:nonzero;"/><path d="M539.968,77.313c-0.059,-0.179 -0.096,-0.349 -0.111,-0.512c0,-0.283 0.104,-0.542 0.311,-0.78c0.327,-0.386 0.743,-0.579 1.247,-0.579l4.876,0c0.579,0 1.114,0.201 1.604,0.601c0.489,0.401 0.838,0.906 1.046,1.515l5.878,17.634l5.433,-17.634c0.43,-1.396 1.314,-2.101 2.65,-2.116l4.096,0c1.336,0 2.22,0.705 2.65,2.116l5.433,17.634l5.878,-17.634c0.208,-0.609 0.557,-1.114 1.046,-1.515c0.49,-0.4 1.025,-0.601 1.604,-0.601l4.876,0c0.519,0 0.935,0.193 1.247,0.579c0.207,0.238 0.311,0.497 0.311,0.78c0,0.163 -0.037,0.333 -0.111,0.512l-9.93,27.787c-0.55,1.514 -1.618,2.271 -3.207,2.271l-3.228,0c-1.648,0 -2.709,-0.757 -3.184,-2.271l-5.433,-17.144l-5.433,17.144c-0.49,1.514 -1.551,2.271 -3.184,2.271l-3.251,0c-1.573,0 -2.634,-0.757 -3.183,-2.271l-9.931,-27.787Z" style="fill-rule:nonzero;"/><path d="M587.372,105.323l5.588,-21.197c1.514,-5.774 6.442,-8.669 14.785,-8.684l12.001,0c0.549,0 1.005,0.208 1.369,0.624c0.364,0.415 0.546,0.898 0.546,1.447l0,27.81c0,0.579 -0.208,1.065 -0.624,1.458c-0.416,0.393 -0.913,0.59 -1.492,0.59l-4.186,0c-0.608,0 -1.109,-0.197 -1.503,-0.59c-0.393,-0.393 -0.59,-0.894 -0.59,-1.503l0,-5.611l-15.83,0l-1.492,5.611c-0.149,0.609 -0.483,1.11 -1.002,1.503c-0.52,0.393 -1.069,0.59 -1.648,0.59l-4.386,0c-0.579,0 -1.017,-0.2 -1.314,-0.601c-0.208,-0.267 -0.312,-0.572 -0.312,-0.913c0.015,-0.163 0.045,-0.341 0.09,-0.534Zm11.711,-11.957l14.183,0l0,-11.623l-6.345,0c-1.425,0 -2.668,0.405 -3.73,1.214c-1.061,0.809 -1.777,1.896 -2.148,3.262l-1.96,7.147Z" style="fill-rule:nonzero;"/><path d="M625.29,79.65l0,-2.092c0,-0.609 0.2,-1.114 0.601,-1.515c0.401,-0.4 0.905,-0.601 1.514,-0.601l28.255,0c0.609,0 1.113,0.201 1.514,0.601c0.401,0.401 0.601,0.906 0.601,1.515l0,2.092c0,0.609 -0.2,1.11 -0.601,1.503c-0.401,0.394 -0.905,0.59 -1.514,0.59l-9.93,0l0,23.58c0,0.579 -0.204,1.065 -0.613,1.458c-0.408,0.393 -0.901,0.59 -1.48,0.59l-4.209,0c-0.578,0 -1.072,-0.197 -1.48,-0.59c-0.408,-0.393 -0.613,-0.879 -0.613,-1.458l0,-23.58l-9.93,0c-0.609,0 -1.113,-0.196 -1.514,-0.59c-0.401,-0.393 -0.601,-0.894 -0.601,-1.503Z" style="fill-rule:nonzero;"/><path d="M661.405,105.278l0,-27.72c0,-0.579 0.207,-1.077 0.623,-1.492c0.416,-0.416 0.928,-0.624 1.536,-0.624l4.142,0c0.579,0 1.072,0.208 1.48,0.624c0.409,0.415 0.613,0.913 0.613,1.492l0,10.019l15.318,0l0,-10.019c0,-0.579 0.208,-1.077 0.624,-1.492c0.415,-0.416 0.913,-0.624 1.492,-0.624l4.141,0c0.609,0 1.117,0.208 1.525,0.624c0.408,0.415 0.613,0.913 0.613,1.492l0,27.72c0,0.579 -0.212,1.073 -0.635,1.481c-0.423,0.408 -0.924,0.612 -1.503,0.612l-4.141,0c-0.579,0 -1.077,-0.197 -1.492,-0.59c-0.416,-0.393 -0.624,-0.879 -0.624,-1.458l0,-11.445l-15.318,0l0,11.445c0,0.579 -0.204,1.065 -0.613,1.458c-0.408,0.393 -0.901,0.59 -1.48,0.59l-4.142,0c-0.579,0 -1.083,-0.204 -1.514,-0.612c-0.43,-0.408 -0.645,-0.902 -0.645,-1.481Z" style="fill-rule:nonzero;"/></g><path d="M557.18,100.397l0.166,-0.545l5.112,-16.731l0.166,-0.546" style="fill:none;stroke:#fff;stroke-width:1.14px;stroke-miterlimit:4;"/><path d="M555.462,98.061l0.865,5.127l3.583,-3.768l-2.564,0.432l-1.884,-1.791Z" style="fill:#fff;fill-rule:nonzero;"/><path d="M564.342,84.912l-0.865,-5.128l-3.583,3.769l2.564,-0.433l1.884,1.792Z" style="fill:#fff;fill-rule:nonzero;"/><path d="M577.597,100.397l0.166,-0.545l5.111,-16.732l0.167,-0.546" style="fill:none;stroke:#fff;stroke-width:1.14px;stroke-miterlimit:4;"/><path d="M575.879,98.06l0.865,5.128l3.583,-3.769l-2.564,0.433l-1.884,-1.792Z" style="fill:#fff;fill-rule:nonzero;"/><path d="M584.759,84.911l-0.865,-5.128l-3.583,3.769l2.564,-0.433l1.884,1.792Z" style="fill:#fff;fill-rule:nonzero;"/></g></g><path d="M268.481,366.928l0,54.452l-2.25,0l3,6l3,-6l-2.25,0l0,-54.452l-1.5,0Z" style="fill-rule:nonzero;"/><path d="M99.865,212.288l0,242.667l88.25,0l0,2.25l6,-3l-6,-3l0,2.25l-86.75,0l0,-241.167l-1.5,0Z" style="fill-rule:nonzero;"/></svg>