<?xml version="1.0" encoding="UTF-8" standalone="no"?><!DOCTYPE svg PUBLIC "-//W3C//DTD SVG 1.1//EN" "http://www.w3.org/Graphics/SVG/1.1/DTD/svg11.dtd"><svg width="100%" height="100%" viewBox="0 0 720 540" version="1.1" xmlns="http://www.w3.org/2000/svg" xmlns:xlink="http://www.w3.org/1999/xlink" xml:space="preserve" style="fill-rule:evenodd;clip-rule:evenodd;stroke-miterlimit:8;"><rect x="0" y="0" width="720" height="540" style="fill:#fff;fill-rule:nonzero;"/><rect x="25.5" y="212.288" width="47.269" height="26.418" style="fill:#7030a0;fill-rule:nonzero;"/><rect x="25.5" y="212.288" width="47.269" height="26.418" style="fill:none;stroke:#000;stroke-width:1.5px;"/><rect x="194.115" y="212.288" width="47.269" height="26.418" style="fill:#7030a0;fill-rule:nonzero;"/><rect x="194.115" y="212.288" width="47.269" height="26.418" style="fill:none;stroke:#000;stroke-width:1.5px;"/><rect x="362.731" y="212.288" width="47.269" height="26.418" style="fill:#7030a0;fill-rule:nonzero;"/><rect x="362.731" y="212.288" width="47.269" height="26.418" style="fill:none;stroke:#000;stroke-width:1.5px;"/><rect x="38.596" y="68.918" width="124.039" height="48.229" style="fill:#bfbfbf;fill-rule:nonzero;"/><rect x="38.596" y="68.918" width="124.039" height="48.229" style="fill:none;stroke:#000;stroke-width:1.5px;"/><rect x="207.212" y="68.918" width="124.039" height="48.229" style="fill:#7f7f7f;fill-rule:nonzero;"/><rect x="207.212" y="68.918" width="124.039" height="48.229" style="fill:none;stroke:#000;stroke-width:1.5px;"/><rect x="194.115" y="158.639" width="150.231" height="53.649" style="fill:#1f4e79;fill-rule:nonzero;"/><rect x="194.115" y="158.639" width="150.231" height="53.649" style="fill:none;stroke:#000;stroke-width:1.5px;"/><rect x="25.5" y="158.639" width="150.231" height="53.649" style="fill:#70ad47;fill-rule:nonzero;"/><rect x="25.5" y="158.639" width="150.231" height="53.649" style="fill:none;stroke:#000;stroke-width:1.5px;"/><rect x="207.211" y="318.698" width="124.039" height="48.229" style="fill:#525252;fill-rule:nonzero;"/><rect x="207.211" y="318.698" width="124.039" height="48.229" style="fill:none;stroke:#000;stroke-width:1.5px;"/><rect x="391.115" y="318.698" width="124.039" height="48.229" style="fill:#525252;fill-rule:nonzero;"/><rect x="391.115" y="318.698" width="124.039" height="48.229" style="fill:none;stroke:#000;stroke-width:1.5px;"/><text x="35.135px" y="232.362px" style="font-family:'ArialMT', 'Arial', sans-serif;font-size:18px;fill:#fff;">IPF</text><text x="203.75px" y="232.362px" style="font-family:'ArialMT', 'Arial', sans-serif;font-size:18px;fill:#fff;">IPF</text><text x="372.365px" y="232.362px" style="font-family:'ArialMT', 'Arial', sans-serif;font-size:18px;fill:#fff;">IPF</text><g><text x="47.11px" y="89.097px" style="font-family:'ArialMT', 'Arial', sans-serif;font-size:18px;">DDA<tspan x="84.121px 89.122px " y="89.097px 89.097px "> /</tspan> DIA-ps</text><text x="70.45px" y="110.434px" style="font-family:'ArialMT', 'Arial', sans-serif;font-size:18px;">mzXML</text></g><text x="222.058px" y="99.897px" style="font-family:'ArialMT', 'Arial', sans-serif;font-size:18px;fill:#fff;">DIA<tspan x="251.071px 256.072px " y="99.897px 99.897px "> m</tspan>zXML</text><text x="215.728px" y="192.329px" style="font-family:'ArialMT', 'Arial', sans-serif;font-size:18px;fill:#fff;">OpenSW<tspan x="288.089px 298.758px 309.754px " y="192.329px 192.329px 192.329px ">ATH</tspan></text><g><text x="37.615px" y="181.529px" style="font-family:'ArialMT', 'Arial', sans-serif;font-size:18px;fill:#fff;">Spectral Library</text><text x="56.115px" y="202.865px" style="font-family:'ArialMT', 'Arial', sans-serif;font-size:18px;fill:#fff;">Generation</text></g><g><text x="215.731px" y="339.678px" style="font-family:'ArialMT', 'Arial', sans-serif;font-size:14px;fill:#fff;">Chro</text><text x="246.075px" y="339.678px" style="font-family:'ArialMT', 'Arial', sans-serif;font-size:14px;fill:#fff;">m</text><text x="257.588px" y="339.678px" style="font-family:'ArialMT', 'Arial', sans-serif;font-size:14px;fill:#fff;">ato</text><text x="277.049px" y="339.678px" style="font-family:'ArialMT', 'Arial', sans-serif;font-size:14px;fill:#fff;">g</text><text x="284.736px" y="339.678px" style="font-family:'ArialMT', 'Arial', sans-serif;font-size:14px;fill:#fff;">ra</text><text x="297.184px" y="339.678px" style="font-family:'ArialMT', 'Arial', sans-serif;font-size:14px;fill:#fff;">p</text><text x="304.87px" y="339.678px" style="font-family:'ArialMT', 'Arial', sans-serif;font-size:14px;fill:#fff;">hic</text><text x="250.231px" y="356.35px" style="font-family:'ArialMT', 'Arial', sans-serif;font-size:14px;fill:#fff;">mzML</text></g><text x="417.135px" y="349.678px" style="font-family:'ArialMT', 'Arial', sans-serif;font-size:18px;fill:#fff;">Statistics</text><g><text x="107.723px" y="284.538px" style="font-family:'Arial-BoldMT', 'Arial', sans-serif;font-weight:700;font-size:18px;">T<tspan x="117.725px 124.73px " y="284.538px 284.538px ">ra</tspan>M</text><text x="149.735px" y="284.538px" style="font-family:'Arial-BoldMT', 'Arial', sans-serif;font-weight:700;font-size:18px;">L</text><text x="116.728px" y="305.875px" style="font-family:'Arial-BoldMT', 'Arial', sans-serif;font-weight:700;font-size:18px;">TSV</text></g><text x="280.836px" y="284.641px" style="font-family:'Arial-BoldMT', 'Arial', sans-serif;font-weight:700;font-size:18px;">OSW TSV</text><path d="M99.865,260.115l0,-47.827l1.5,0l0,46.327l82.808,0l0,-73.901l3.942,0l0,-2.25l6,3l-6,3l0,-2.25l-2.442,0l0,73.901l-85.808,0Z" style="fill-rule:nonzero;"/><path d="M268.481,260.807l0,-48.519l1.5,0l0,47.019l82.808,0l0,-74.593l3.942,0l0,-2.25l6,3l-6,3l0,-2.25l-2.442,0l0,74.593l-85.808,0Z" style="fill-rule:nonzero;"/><path d="M99.866,117.147l-0.001,35.492l-2.25,0l3,6l3,-6l-2.25,0l0.001,-35.492l-1.5,0Z" style="fill-rule:nonzero;"/><path d="M268.481,117.147l0,35.492l-2.25,0l3,6l3,-6l-2.25,0l0,-35.492l-1.5,0Z" style="fill-rule:nonzero;"/><path d="M269.981,212.288l-1.5,0l0,100.41l-2.25,0l3,6l3,-6l-2.25,0l0,-100.41Z" style="fill-rule:nonzero;"/><path d="M452.385,212.288l1.5,0l0,100.41l2.25,0l-3,6l-3,-6l2.25,0l0,-100.41Z" style="fill-rule:nonzero;"/><rect x="362.731" y="158.639" width="180.808" height="53.649" style="fill:#ed7d31;fill-rule:nonzero;"/><rect x="362.731" y="158.639" width="180.808" height="53.649" style="fill:none;stroke:#000;stroke-width:1.5px;"/><rect x="561.923" y="158.639" width="132.577" height="53.649" style="fill:#ffd966;fill-rule:nonzero;"/><rect x="561.923" y="158.639" width="132.577" height="53.649" style="fill:none;stroke:#000;stroke-width:1.5px;"/><rect x="566.192" y="318.698" width="124.039" height="48.229" style="fill:#525252;fill-rule:nonzero;"/><rect x="566.192" y="318.698" width="124.039" height="48.229" style="fill:none;stroke:#000;stroke-width:1.5px;"/><text x="411.135px" y="192.329px" style="font-family:'ArialMT', 'Arial', sans-serif;font-size:18px;">PyProphet</text><text x="607.212px" y="192.329px" style="font-family:'ArialMT', 'Arial', sans-serif;font-size:18px;">TRIC</text><g><text x="580.212px" y="338.878px" style="font-family:'ArialMT', 'Arial', sans-serif;font-size:18px;fill:#fff;">Quantitative</text><text x="603.712px" y="360.215px" style="font-family:'ArialMT', 'Arial', sans-serif;font-size:18px;fill:#fff;">Matrix</text></g><text x="465.717px" y="284.894px" style="font-family:'Arial-BoldMT', 'Arial', sans-serif;font-weight:700;font-size:18px;">PYP<tspan x="501.41px 506.411px " y="284.894px 284.894px "> T</tspan>SV</text><path d="M452.385,231.038l0,-18.75l1.5,0l0,17.25l98.096,0l0,-44.824l3.942,0l0,-2.25l6,3l-6,3l0,-2.25l-2.442,0l0,44.824l-101.096,0Z" style="fill-rule:nonzero;"/><path d="M628.962,212.288l-1.5,0l0,100.41l-2.25,0l3,6l3,-6l-2.25,0l0,-100.41Z" style="fill-rule:nonzero;"/><rect x="194.115" y="427.38" width="150.231" height="53.649" style="fill:#c00000;fill-rule:nonzero;"/><rect x="194.115" y="427.38" width="150.231" height="53.649" style="fill:none;stroke:#000;stroke-width:1.5px;"/><g><text x="242.896px" y="461.07px" style="font-family:'Arial-BoldMT', 'Arial', sans-serif;font-weight:700;font-size:18px;fill:#fff;">T<tspan x="252.555px 265.554px " y="461.07px 461.07px ">AP</tspan>I</text><text x="282.561px" y="461.07px" style="font-family:'Arial-BoldMT', 'Arial', sans-serif;font-weight:700;font-size:18px;fill:#fff;">R</text></g><g><clipPath id="_clip1"><rect x="370.653" y="65.065" width="331.507" height="55.934"/></clipPath><g clip-path="url(#_clip1)"><rect x="308.933" y="43.531" width="455.999" height="91.199" style="fill:#fff;fill-rule:nonzero;"/><rect x="308.933" y="43.531" width="455.999" height="91.2" style="fill:#fff;fill-rule:nonzero;"/><text x="376.717px" y="107.371px" style="font-family:'Days';font-size:45.6px;">OpenS<tspan x="539.411px 586.815px " y="107.371px 107.371px ">WA</tspan>TH</text><path d="M557.18,100.397l0.166,-0.545l5.112,-16.731l0.166,-0.546" style="fill:none;stroke:#fff;stroke-width:1.14px;stroke-miterlimit:4;"/><path d="M555.462,98.061l0.865,5.127l3.583,-3.768l-2.564,0.432l-1.884,-1.791Z" style="fill:#fff;fill-rule:nonzero;"/><path d="M564.342,84.912l-0.865,-5.128l-3.583,3.769l2.564,-0.433l1.884,1.792Z" style="fill:#fff;fill-rule:nonzero;"/><path d="M577.597,100.397l0.166,-0.545l5.111,-16.732l0.167,-0.546" style="fill:none;stroke:#fff;stroke-width:1.14px;stroke-miterlimit:4;"/><path d="M575.879,98.06l0.865,5.128l3.583,-3.769l-2.564,0.433l-1.884,-1.792Z" style="fill:#fff;fill-rule:nonzero;"/><path d="M584.759,84.911l-0.865,-5.128l-3.583,3.769l2.564,-0.433l1.884,1.792Z" style="fill:#fff;fill-rule:nonzero;"/></g></g><path d="M268.481,366.928l0,54.452l-2.25,0l3,6l3,-6l-2.25,0l0,-54.452l-1.5,0Z" style="fill-rule:nonzero;"/><path d="M99.865,212.288l0,242.667l88.25,0l0,2.25l6,-3l-6,-3l0,2.25l-86.75,0l0,-241.167l-1.5,0Z" style="fill-rule:nonzero;"/></svg>